<svg id="Layer_1" data-name="Layer 1" xmlns="http://www.w3.org/2000/svg" viewBox="0 0 168.68 168.68"><defs><style>.cls-1{fill:none;}.cls-2{fill:#fafafb;stroke:#8d7df4;stroke-width:2px;}.cls-3{fill:#574c9c;}</style></defs><path id="Path_324" data-name="Path 324" class="cls-1" d="M48.09,47.12H216.77V215.8H48.09Z" transform="translate(-48.09 -47.12)"/><g id="layer1"><g id="g4184"><path id="rect5956-9" class="cls-2" d="M69.28,65.64h113a12.53,12.53,0,0,1,12.56,12.49v31.45H56.72V78.19a12.52,12.52,0,0,1,12.5-12.55Z" transform="translate(-48.09 -47.12)"/><path id="rect6135-2" class="cls-2" d="M56.72,103.34v87.88a12.54,12.54,0,0,0,12.51,12.55h113a12.55,12.55,0,0,0,12.56-12.51V103.34Z" transform="translate(-48.09 -47.12)"/><rect id="rect5958-3" class="cls-3" x="34.46" y="0.65" width="11.53" height="40.34" rx="2.88"/><rect id="rect5960-3" class="cls-3" x="109.37" y="0.65" width="11.53" height="40.34" rx="2.88"/><rect id="rect5966-6" class="cls-3" x="103.61" y="75.56" width="11.53" height="11.53"/><rect id="rect5968-9" class="cls-3" x="80.56" y="75.56" width="11.53" height="11.53"/><rect id="rect5970-1" class="cls-3" x="57.51" y="75.56" width="11.53" height="11.53"/><rect id="rect5972-6" class="cls-3" x="34.46" y="75.56" width="11.53" height="11.53"/><rect id="rect5974-4" class="cls-3" x="103.61" y="98.61" width="11.53" height="11.53"/><rect id="rect5976-1" class="cls-3" x="80.56" y="98.61" width="11.53" height="11.53"/><rect id="rect5978-2" class="cls-3" x="57.51" y="98.61" width="11.53" height="11.53"/><rect id="rect5980-5" class="cls-3" x="34.46" y="98.61" width="11.53" height="11.53"/><rect id="rect5982-3" class="cls-3" x="80.56" y="121.66" width="11.53" height="11.53"/><rect id="rect5984-4" class="cls-3" x="57.51" y="121.66" width="11.53" height="11.53"/><rect id="rect5986-6" class="cls-3" x="34.46" y="121.66" width="11.53" height="11.53"/></g></g></svg>