<svg id="Layer_1" data-name="Layer 1" xmlns="http://www.w3.org/2000/svg" viewBox="0 0 176 113.44"><defs><style>.cls-1{fill:#8d7df4;}</style></defs><g id="noun-friend-list-4516780"><path id="Path_308" data-name="Path 308" class="cls-1" d="M104.84,124.63a36.27,36.27,0,0,1-23.53,8.52,36.66,36.66,0,0,1-23.53-8.52,39.78,39.78,0,0,0-20,34.46v16.52a6.84,6.84,0,0,0,6.79,6.88h73.8a6.85,6.85,0,0,0,6.89-6.8v-16.6a40.12,40.12,0,0,0-20.39-34.46Z" transform="translate(-37.77 -69.04)"/><path id="Path_309" data-name="Path 309" class="cls-1" d="M81.31,124.44A27.7,27.7,0,1,0,53.7,96.65a27.7,27.7,0,0,0,27.61,27.79Z" transform="translate(-37.77 -69.04)"/><path id="Path_310" data-name="Path 310" class="cls-1" d="M170.79,88.5h36a7,7,0,0,0,0-14.08h-36a7,7,0,0,0-7,7A7.29,7.29,0,0,0,170.79,88.5Z" transform="translate(-37.77 -69.04)"/><path id="Path_311" data-name="Path 311" class="cls-1" d="M148.57,74.23h-4.82a7,7,0,0,0,0,14.08h4.82a7,7,0,1,0,0-14.08Z" transform="translate(-37.77 -69.04)"/><path id="Path_312" data-name="Path 312" class="cls-1" d="M206.56,103.87H170.62a7,7,0,1,0,0,14.08h35.94a7,7,0,0,0,7-7h0a6.82,6.82,0,0,0-6.58-7Z" transform="translate(-37.77 -69.04)"/><path id="Path_313" data-name="Path 313" class="cls-1" d="M148.36,103.69h-4.82a7,7,0,0,0,0,14.08h4.82a7,7,0,0,0,0-14.08Z" transform="translate(-37.77 -69.04)"/><path id="Path_314" data-name="Path 314" class="cls-1" d="M206.56,133.52H170.62a7,7,0,1,0-.05,14.08h36a7,7,0,0,0,0-14.08Z" transform="translate(-37.77 -69.04)"/><path id="Path_315" data-name="Path 315" class="cls-1" d="M148.36,133.33h-4.82a7,7,0,0,0,0,14.08h4.82a7,7,0,1,0,0-14.08Z" transform="translate(-37.77 -69.04)"/><path id="Path_316" data-name="Path 316" class="cls-1" d="M206.56,163.16H170.62a7,7,0,1,0-.05,14.08h36a7,7,0,1,0,0-14.08Z" transform="translate(-37.77 -69.04)"/><path id="Path_317" data-name="Path 317" class="cls-1" d="M148.2,163h-4.82a7,7,0,0,0,0,14.08h4.87a7,7,0,0,0,7-7h0a6.82,6.82,0,0,0-6.58-7Z" transform="translate(-37.77 -69.04)"/></g></svg>