<svg id="Layer_1" data-name="Layer 1" xmlns="http://www.w3.org/2000/svg" viewBox="0 0 158 158.02"><defs><style>.cls-1{fill:#8d7df4;}</style></defs><path id="Icon_awesome-history" data-name="Icon awesome-history" class="cls-1" d="M204.76,125.62A79,79,0,0,1,76.19,187.28a7.65,7.65,0,0,1-1.13-10.75c.17-.2.35-.4.54-.59l3.58-3.59a7.67,7.67,0,0,1,10.16-.63,58.61,58.61,0,1,0-3.72-88.65l16.15,16.16a5.1,5.1,0,0,1-3.6,8.71H51.86a5.09,5.09,0,0,1-5.09-5.07V56.53a5.1,5.1,0,0,1,8.7-3.6L71.19,68.64a79,79,0,0,1,133.58,57Zm-57.63,25.11,3.13-4A7.65,7.65,0,0,0,148.93,136h0l-13-10.09V92.65A7.64,7.64,0,0,0,128.31,85h-5.1a7.64,7.64,0,0,0-7.64,7.64v43.21l20.84,16.21a7.65,7.65,0,0,0,10.73-1.34h0Z" transform="translate(-46.77 -46.76)"/></svg>