<svg id="Layer_1" data-name="Layer 1" xmlns="http://www.w3.org/2000/svg" viewBox="0 0 168.68 168.68"><defs><style>.cls-1{fill:none;}.cls-2{fill:#8d7df4;}</style></defs><path id="Path_324" data-name="Path 324" class="cls-1" d="M48.09,47.12H216.77V215.8H48.09Z" transform="translate(-48.09 -47.12)"/><path id="Path_325" data-name="Path 325" class="cls-2" d="M183.65,166.88l-9.06-9.07V122.67c0-21.58-11.53-39.64-31.63-44.42V73.47a10.54,10.54,0,0,0-21.08,0v4.78C101.7,83,90.27,101,90.27,122.67v35.14l-9.09,9.07a7,7,0,0,0,4.92,12h92.59a7,7,0,0,0,5-12Zm-23.12-2H104.31V122.67c0-17.43,10.61-31.63,28.11-31.63s28.11,14.2,28.11,31.63ZM132.42,200a14.09,14.09,0,0,0,14.05-14.06H118.36a14.05,14.05,0,0,0,14,14.06Z" transform="translate(-48.09 -47.12)"/></svg>