<svg xmlns="http://www.w3.org/2000/svg" width="29.044" height="20.823" viewBox="0 0 29.044 20.823">
  <g id="noun-campaign-3643540" transform="translate(-37.3 -187.242)">
    <path id="Path_330" data-name="Path 330" d="M56.482,263.939a.9.9,0,0,0-.829-.092l-13.73,5.437h-3.5a.871.871,0,0,0-.921.921v3.686a.871.871,0,0,0,.921.921h2.764v6.45a.871.871,0,0,0,.921.921h3.686a.871.871,0,0,0,.921-.921v-4.515l8.846,3.594c.092,0,.184.092.369.092a1.31,1.31,0,0,0,.553-.184.838.838,0,0,0,.369-.737V264.677A1.138,1.138,0,0,0,56.482,263.939Zm-17.139,7.187h1.843v1.843H39.343Zm5.529,9.215H43.029v-5.068l1.843.737Zm10.136-2.3-11.979-4.792v-2.4l11.979-4.792Z" transform="translate(0 -74.412)" fill="#8d7df4" stroke="#8d7df4" stroke-width="0.4"/>
    <path id="Path_331" data-name="Path 331" d="M939.159,187.776a.912.912,0,1,0-1.29,1.29,12.622,12.622,0,0,1,3.317,8.57,12.345,12.345,0,0,1-3.409,8.662.891.891,0,0,0,0,1.29.891.891,0,0,0,1.29,0,14.487,14.487,0,0,0,.092-19.812Z" transform="translate(-876.885 0)" fill="#8d7df4" stroke="#8d7df4" stroke-width="0.4"/>
    <path id="Path_332" data-name="Path 332" d="M867.817,296.526a.912.912,0,0,0-1.29,1.29,8.456,8.456,0,0,1,0,11.795.891.891,0,0,0,0,1.29.891.891,0,0,0,1.29,0,9.952,9.952,0,0,0,2.949-7.187A10.107,10.107,0,0,0,867.817,296.526Z" transform="translate(-808.386 -106.078)" fill="#8d7df4" stroke="#8d7df4" stroke-width="0.4"/>
  </g>
</svg>
