<svg id="Layer_1" data-name="Layer 1" xmlns="http://www.w3.org/2000/svg" viewBox="0 0 150.6 134.49"><defs><style>.cls-1{fill:#8d7df4;stroke:#8d7df4;stroke-width:0.6px;}.cls-2{fill:#37e288;}</style></defs><g id="Calendar"><path id="Path_318" data-name="Path 318" class="cls-1" d="M156.66,123.23a3.85,3.85,0,0,1-3.83-3.83V88.79a3.83,3.83,0,1,1,7.66,0V119.4a3.83,3.83,0,0,1-3.83,3.83Zm-41.82,42.31H58.49a3.84,3.84,0,0,1-3.9-3.76v-73a3.83,3.83,0,0,1,7.66,0h0v69.09h52.59a3.83,3.83,0,0,1,0,7.66Z" transform="translate(-50.47 -58.67)"/><path id="Path_319" data-name="Path 319" class="cls-1" d="M163.47,192.86a37.89,37.89,0,0,1-7.66-75,3.83,3.83,0,0,1,1.51,7.5A30.33,30.33,0,0,0,133.18,155a28.74,28.74,0,0,0,.61,5.92,30.19,30.19,0,1,0,36.87-35.19,3.83,3.83,0,0,1,1.81-7.45,37.89,37.89,0,0,1-9,74.54Zm-2.88-100.3h-89a3.83,3.83,0,0,1,0-7.65h85.08V73.47h-23.4a3.83,3.83,0,1,1,0-7.65h27.31a3.83,3.83,0,0,1,3.73,3.83V88.81a3.86,3.86,0,0,1-3.7,3.8Z" transform="translate(-50.47 -58.67)"/><path id="Path_320" data-name="Path 320" class="cls-1" d="M121.24,73.47H81.9a3.83,3.83,0,1,1,0-7.65h39.34a3.83,3.83,0,1,1,0,7.65ZM58.49,92.61h-3.9a3.83,3.83,0,0,1-3.82-3.83h0V69.65a3.82,3.82,0,0,1,3.82-3.83H69.9a3.83,3.83,0,1,1,0,7.65H58.42V85a3.83,3.83,0,1,1,0,7.66Z" transform="translate(-50.47 -58.67)"/><path id="Path_321" data-name="Path 321" class="cls-2" d="M75.74,80.62a3.84,3.84,0,0,1-3.83-3.83h0V62.5a3.83,3.83,0,0,1,7.66,0h0V76.79a3.84,3.84,0,0,1-3.83,3.83Zm51.36,0a3.83,3.83,0,0,1-3.82-3.83h0V62.5a3.83,3.83,0,1,1,7.65,0V76.79a3.83,3.83,0,0,1-3.83,3.83Zm22.19,83.43a3.82,3.82,0,0,1-1.33-7.42l11.7-4.32V133.76a3.83,3.83,0,0,1,7.66,0v21.31a3.8,3.8,0,0,1-2.55,3.57l-14.19,5.24a3.38,3.38,0,0,1-1.3.17Z" transform="translate(-50.47 -58.67)"/></g></svg>